# xmcd CD database file
#
# Track frame offsets:
#	150
#	13942
#	27992
#	42147
#	56635
#	74987
#	95525
#	115882
#	129332
#	142902
#	156907
#	169687
#	181492
#
# Disc length: 2596 seconds
#
# Revision: 5
# Processed by: cddbd v1.5.2PL0 Copyright (c) Steve Scherf et al.
# Submitted via: CDex 1.70beta2
#
DISCID=b70a220d
DTITLE=Albert Ammons - Albert Ammons/Piano Solos
DYEAR=1900
DGENRE=Jazz
TTITLE0=Blues in the Groove
TTITLE1=Blues in the Groove - No.2
TTITLE2=The Breaks
TTITLE3=The Breaks - No.2
TTITLE4=Jammin' the Boogie
TTITLE5=Bottom Blues
TTITLE6=Bottom Blues - No.2
TTITLE7=Albert's Special Boogie
TTITLE8=The Boogie Rocks
TTITLE9=Blues on my Mind
TTITLE10=Bugle Boogie
TTITLE11=Bugle Boogie - No.2
TTITLE12=Reveille Boogie
EXTD=Blues in the Groove
EXTT0=
EXTT1=
EXTT2=
EXTT3=
EXTT4=
EXTT5=
EXTT6=
EXTT7=
EXTT8=
EXTT9=
EXTT10=
EXTT11=
EXTT12=
PLAYORDER=
